<svg xmlns="http://www.w3.org/2000/svg" viewBox="0 0 512 512">
  <defs>
    <linearGradient id="neon-grad" x1="0%" y1="0%" x2="100%" y2="100%">
      <stop offset="0%" style="stop-color:#22d3ee;stop-opacity:1" />
      <stop offset="100%" style="stop-color:#a855f7;stop-opacity:1" />
    </linearGradient>
  </defs>
  
  <!-- Triangle arrière-plan -->
  <path d="M256 32L32 416h448L256 32z" fill="none" stroke="url(#neon-grad)" stroke-width="8" stroke-linejoin="round" opacity="0.5"/>
  
  <!-- Personnage à capuche -->
  <path d="M256 64c-64 0-115 40-128 96-13 56 0 112 32 144s80 48 96 48 64-16 96-48 45-88 32-144c-13-56-64-96-128-96z" fill="none" stroke="url(#neon-grad)" stroke-width="12" stroke-linecap="round" stroke-linejoin="round"/>
  <path d="M160 416c0-32 32-64 64-64h64c32 0 64 32 64 64" fill="none" stroke="url(#neon-grad)" stroke-width="12" stroke-linecap="round"/>
  
  <!-- Lunettes -->
  <g transform="translate(176, 160)" fill="none" stroke="#22d3ee" stroke-width="8">
    <rect x="0" y="0" width="64" height="32" rx="8" />
    <rect x="96" y="0" width="64" height="32" rx="8" />
    <line x1="64" y1="16" x2="96" y2="16" />
  </g>
  
  <!-- Ordinateur Portable -->
  <g transform="translate(96, 320)">
    <rect x="0" y="0" width="320" height="160" rx="16" fill="#0f172a" stroke="url(#neon-grad)" stroke-width="8"/>
    <rect x="32" y="32" width="256" height="96" rx="4" fill="#1e293b"/>
    <circle cx="160" cy="80" r="24" fill="none" stroke="#22d3ee" stroke-width="6"/>
    <path d="M0 160L32 192h256l32-32" fill="none" stroke="url(#neon-grad)" stroke-width="8" stroke-linejoin="round"/>
  </g>
</svg>
